# xmcd CD database file
#
# Track frame offsets:
#	150
#	25877
#	36162
#	62660
#	73742
#	104065
#	119867
#	131177
#	147076
#	160043
#	171106
#	185170
#	194932
#	205593
#
# Disc length: 2815 seconds
#
# Revision: 0
# Processed by: cddbd v1.5PL3 Copyright (c) Steve Scherf et al.
# Submitted via: CDex 1.40Release
#
DISCID=e10afd0e
DTITLE=Eric Clapton - O Melhor De
DYEAR=1900
DGENRE=Blues
TTITLE0=Take It Easy
TTITLE1=Let It Rock
TTITLE2=I Wish You Would
TTITLE3=Boom Boom
TTITLE4=Smokestack Lightening
TTITLE5=Louise
TTITLE6=Good Morning Little School Girl
TTITLE7=The Train Kept a Rollin'
TTITLE8=Freight Loader
TTITLE9=Shapes of Things
TTITLE10=Draggin' My Tail
TTITLE11=Tribute to Elmore
TTITLE12=West Coast Idea
TTITLE13=Choker
EXTD=ID3G: 0
EXTT0=
EXTT1=
EXTT2=
EXTT3=
EXTT4=
EXTT5=
EXTT6=
EXTT7=
EXTT8=
EXTT9=
EXTT10=
EXTT11=
EXTT12=
EXTT13=
PLAYORDER=
